<?xml version="1.0" encoding="utf-8"?>
<!-- Generator: Adobe Illustrator 28.4.1, SVG Export Plug-In . SVG Version: 6.00 Build 0)  -->
<svg version="1.1" id="Layer_1" xmlns="http://www.w3.org/2000/svg" xmlns:xlink="http://www.w3.org/1999/xlink" x="0px" y="0px"
	 viewBox="0 0 80 80" style="enable-background:new 0 0 80 80;" xml:space="preserve">
<g>
	<g>
		<path d="M2.5,42.7c0-5.4,0-10.8,0-16.1c1.2-2.7,4.3-2.7,6.6-4.3C3.3,19.5,1.9,15.9,3.6,9c1.4-5.4,5.7-3.5,9-3.4
			c11.7,0.1,23.4,0,35.1,0.9c8.5,0.7,16.5-2.3,24.8-3.7c3.2-0.6,5,0.6,5.8,3.9c0.9,3.5-1.1,4.4-3.6,4.6c5,5.5,2.1,12,2.9,17.8
			c0.7,4.7-3.7,5.2-6.7,7.9c5.5,1.7,2.9,6.7,4.9,9.7c2.9,4.2,2.8,7.8-1.2,11.3c-1.1,1-2.1,1.9,0,3.2c1.8,1.2,3.4,10.1,2.6,12.1
			c-0.6,1.3-1.6,2.2-2.9,2.1c-9.8-0.6-19.9,2.3-29.5-2c-1.6-0.7-3.1-0.9-4.5,0.2c-3.8,3.1-8.2,2.9-12.7,2.7
			c-5.4-0.2-10.7-0.5-16.1-0.8c-2.6-0.1-5.9,0.8-6.9-2.7c-1-3.4-1.2-7,2.5-9.3c1.5-0.9,1.3-1.5,0.3-2.9c-3-4.5-2.1-11.8,1.7-16
			C7,44,4.7,43.3,2.5,42.7z"/>
	</g>
</g>
</svg>
