<?xml version="1.0" encoding="UTF-8"?>
<svg version="1.1" xmlns="http://www.w3.org/2000/svg" width="80" height="80">
<path d="M0 0 C0.9765625 6.0546875 0.9765625 6.0546875 1 8 C0.34 8.66 -0.32 9.32 -1 10 C-0.505 10.495 -0.505 10.495 0 11 C0.08685603 12.56172745 0.10702219 14.12729344 0.09765625 15.69140625 C0.09282227 17.10776367 0.09282227 17.10776367 0.08789062 18.55273438 C0.07532227 20.04256836 0.07532227 20.04256836 0.0625 21.5625 C0.05798828 22.55958984 0.05347656 23.55667969 0.04882812 24.58398438 C0.03700007 27.05604849 0.02051849 29.52799518 0 32 C-1.98 32.99 -3.96 33.98 -6 35 C-5.505 35.33 -5.01 35.66 -4.5 36 C-2.11820439 39.17572747 -2.80831774 42.10246066 -3 46 C-2.34 46 -1.68 46 -1 46 C-1 46.66 -1 47.32 -1 48 C-0.34 48 0.32 48 1 48 C1.375 50.625 1.375 50.625 1 54 C-0.80053619 56.33753821 -2.7607802 58.04068267 -5 60 C-3.35 60.66 -1.7 61.32 0 62 C-0.66 64.31 -1.32 66.62 -2 69 C-1.34 69 -0.68 69 0 69 C0.04254356 70.99954746 0.04080783 73.00041636 0 75 C-2.3920333 77.3920333 -8.27571441 76.48372976 -11.5 76.625 C-12.469375 76.6765625 -13.43875 76.728125 -14.4375 76.78125 C-29.77665094 77.4822327 -29.77665094 77.4822327 -35 74 C-38.46418389 74.34641839 -40.04929881 75.03286587 -43 77 C-46.03100586 77.25878906 -46.03100586 77.25878906 -49.71484375 77.265625 C-50.36699356 77.26753845 -51.01914337 77.2694519 -51.6910553 77.27142334 C-53.068699 77.27278262 -54.44635562 77.26910406 -55.82397461 77.26074219 C-57.92656437 77.25005558 -60.02829644 77.26063651 -62.13085938 77.2734375 C-63.47135604 77.27211552 -64.81185218 77.26955233 -66.15234375 77.265625 C-67.36913818 77.26336914 -68.58593262 77.26111328 -69.83959961 77.25878906 C-72.82078402 77.01467508 -74.49583423 76.56651339 -77 75 C-77.0270043 73.54176788 -77.04639787 72.08339325 -77.0625 70.625 C-77.07410156 69.81289062 -77.08570312 69.00078125 -77.09765625 68.1640625 C-77 66 -77 66 -76 64 C-75.01 63.34 -74.02 62.68 -73 62 C-73.66 61.67 -74.32 61.34 -75 61 C-75.5546875 57.9453125 -75.5546875 57.9453125 -75.875 54.125 C-75.99617188 52.86945312 -76.11734375 51.61390625 -76.2421875 50.3203125 C-76 47 -76 47 -74.0078125 45.0546875 C-73.34523438 44.70664062 -72.68265625 44.35859375 -72 44 C-74.31 43.34 -76.62 42.68 -79 42 C-79.05392397 39.22890693 -79.09363455 36.45886182 -79.125 33.6875 C-79.14175781 32.90181641 -79.15851563 32.11613281 -79.17578125 31.30664062 C-79.18544922 30.1706543 -79.18544922 30.1706543 -79.1953125 29.01171875 C-79.20578613 28.31522217 -79.21625977 27.61872559 -79.22705078 26.90112305 C-79 25 -79 25 -77 22 C-74.875 20.8125 -74.875 20.8125 -73 20 C-75.475 19.01 -75.475 19.01 -78 18 C-78 13.38 -78 8.76 -78 4 C-74.15320818 2.07660409 -73.12665013 1.76470415 -69.10229492 1.91235352 C-67.64378365 1.95713585 -67.64378365 1.95713585 -66.1558075 2.00282288 C-65.10794571 2.04443039 -64.06008392 2.0860379 -62.98046875 2.12890625 C-60.73764 2.19499452 -58.49480107 2.26073827 -56.25195312 2.32617188 C-52.73485391 2.44109062 -49.2180704 2.56138886 -45.70141602 2.68920898 C-28.12686794 3.37850465 -28.12686794 3.37850465 -10.84277344 0.68994141 C-7.10918088 -0.21620189 -3.81702266 -0.23369526 0 0 Z " fill="#000000" transform="translate(79,1)"/>
</svg>
