<?xml version="1.0" encoding="utf-8"?>
<!-- Generator: Adobe Illustrator 28.4.1, SVG Export Plug-In . SVG Version: 6.00 Build 0)  -->
<svg version="1.1" id="Layer_1" xmlns="http://www.w3.org/2000/svg" xmlns:xlink="http://www.w3.org/1999/xlink" x="0px" y="0px"
	 viewBox="0 0 80 80" style="enable-background:new 0 0 80 80;" xml:space="preserve">
<style type="text/css">
	.st0{fill:#F2FAFF;}
</style>
<path class="st0" d="M0,0"/>
<path class="st0" d="M0,0"/>
<path class="st0" d="M0,0"/>
<path class="st0" d="M0,0"/>
<path class="st0" d="M0,0"/>
<path class="st0" d="M0,0"/>
<g>
	<g>
		<path d="M1.9,18c2.5-2.7,5-5.4,7.5-8.1c1.6-1.7,3.1-2.1,4.8-0.1c2,2.3,4.2,4.5,6.2,6.7c1.2,1.3,1.3,2.4,0.2,4.2
			c-1.9,3-0.8,4.7,2.9,4.7c11.4,0,22.8,0,34.3,0c3.7,0,4.9-1.9,2.9-4.8c-1.4-1.9-0.5-2.9,0.4-4.2c0.2-0.3,0.4-0.5,0.6-0.7
			c7.9-9.2,8.9-9.1,16.1,0.8c0.7,0.9,1.7,1.8,1.1,3c-2.9,5-0.8,10.4-1.4,15.6c-0.3,2.5,0,5.1,0,7.7c0.1,7.2,0.1,7.5-6.9,8.1
			c-3,0.3-3.1,3.5-5.6,4c-4.5,0.9-1.1,3.8-1,5.7c0.1,2.2,0.8,4.4,1.3,6.6c0.3,1.5,0.3,3.1-1.5,3.6c-2,0.5-3-0.9-3.4-2.5
			c-0.8-3.3-1.7-6.5-2.3-9.8c-0.5-2.8-2-3.9-4.7-3.5c-8.5,1.3-16.9,1.4-25.4,0c-2.8-0.5-4.6,0.7-5.2,3.6c-0.7,3.1-1.5,6.2-2.3,9.3
			c-0.5,1.7-1.4,3.6-3.6,2.9c-2-0.7-1.5-2.6-1.1-4.1c0.3-1.2,1.1-2.5,1-3.7c-0.4-2.7,4.6-5.8-0.3-7.9c-2.8-1.2-4-5-8.1-4.1
			c-3.3,0.7-4.5-1.5-4.4-4.7c0.1-6.9,0.1-13.8,0-20.7c0-2,0.4-4.3-1.9-5.6C1.9,19.3,1.9,18.6,1.9,18z M48.1,43.6
			c0-2.1,0.1-4.2,0-6.3c-0.2-4-2.5-6.2-6.4-6.5c-4.1-0.4-7.7,0.3-9,5.2c-0.9,3.7-0.5,7.4-0.6,11c-0.1,6.5,0,6.6,6.3,6.5
			C48.6,53.3,48.1,55.4,48.1,43.6z"/>
		<path d="M39.5,71.3c-4.8,0-9.6,0-14.4,0c-1.1,0-2.4,0.4-3-0.9c-0.5-1.1,0.5-1.7,1-2.5c5.6-8.5,13.5-11,23.2-9.4
			c3.4,0.6,4.4,3.5,6.2,5.6c1.8,2,6,3.7,4.7,6.4c-1.1,2.2-5.3,0.7-8.1,0.8C45.9,71.4,42.7,71.3,39.5,71.3
			C39.5,71.3,39.5,71.3,39.5,71.3z"/>
	</g>
</g>
</svg>
