<?xml version="1.0" encoding="UTF-8"?>
<svg version="1.1" xmlns="http://www.w3.org/2000/svg" width="80" height="80">
<path d="M0 0 C1.32 0.33 2.64 0.66 4 1 C4 1.66 4 2.32 4 3 C4.556875 3.20625 5.11375 3.4125 5.6875 3.625 C9.02396774 5.60884569 10.88080395 7.75887664 13 11 C12.40749152 14.08104409 11.38660214 16.22679571 10 19 C11.02359619 18.96447021 12.04719238 18.92894043 13.10180664 18.89233398 C16.92404491 18.76129603 20.74650969 18.63837626 24.5690918 18.51782227 C26.21890344 18.46467549 27.8686471 18.4093702 29.51831055 18.35180664 C31.89877669 18.2691266 34.27938476 18.19438649 36.66015625 18.12109375 C37.38960953 18.09405869 38.11906281 18.06702362 38.87062073 18.03916931 C43.37993497 17.90974805 47.55088181 18.24188864 52 19 C52.33 17.35 52.66 15.7 53 14 C51.68 14 50.36 14 49 14 C49.57153171 10.4377133 50.82058231 8.86943806 53.4375 6.4375 C55.69526817 4.32113693 57.26012523 2.60981215 59 0 C60.32 0 61.64 0 63 0 C67 4.22222222 67 4.22222222 67 7 C67.99 7.33 68.98 7.66 70 8 C70.38133299 9.9914056 70.71325582 11.99279077 71 14 C70.67 14.33 70.34 14.66 70 15 C69.92441309 17.20713768 69.91692544 19.41666424 69.9375 21.625 C69.94128662 22.28709473 69.94507324 22.94918945 69.94897461 23.63134766 C69.96123297 25.75429641 69.97986421 27.87711219 70 30 C70.02647919 32.79166291 70.04653361 35.58325941 70.0625 38.375 C70.07410156 39.62023438 70.08570312 40.86546875 70.09765625 42.1484375 C70 45 70 45 69 46 C67.31391034 46.07205511 65.62499341 46.08386068 63.9375 46.0625 C63.01839844 46.05347656 62.09929687 46.04445312 61.15234375 46.03515625 C60.44207031 46.02355469 59.73179688 46.01195312 59 46 C59 46.99 59 47.98 59 49 C57.35 49 55.7 49 54 49 C54.2165625 49.80824219 54.433125 50.61648437 54.65625 51.44921875 C54.9346875 52.51785156 55.213125 53.58648437 55.5 54.6875 C55.7784375 55.74324219 56.056875 56.79898438 56.34375 57.88671875 C56.9391715 60.71142672 57.12786492 63.12836708 57 66 C55.35 66 53.7 66 52 66 C49.90429574 60.30601106 48.54981916 55.04801071 48 49 C47.16597656 49.144375 46.33195312 49.28875 45.47265625 49.4375 C34.23575907 51.29100881 25.18796403 51.1202233 14 49 C13.87882812 49.73605469 13.75765625 50.47210938 13.6328125 51.23046875 C13.46523438 52.20628906 13.29765625 53.18210938 13.125 54.1875 C12.96257813 55.15042969 12.80015625 56.11335938 12.6328125 57.10546875 C12.01170474 59.94646164 11.30091625 62.3981675 10 65 C7.375 65.8125 7.375 65.8125 5 66 C3.77249354 62.31748062 4.39056439 60.65397023 5.375 56.9375 C5.65085937 55.87402344 5.92671875 54.81054688 6.2109375 53.71484375 C7 51 7 51 8 49 C6.02 49 4.04 49 2 49 C2 48.01 2 47.02 2 46 C-0.97 46 -3.94 46 -7 46 C-7.96498276 42.14006896 -8.0400583 39.42364726 -7.87890625 35.484375 C-7.83056641 34.23398437 -7.78222656 32.98359375 -7.73242188 31.6953125 C-7.67634766 30.39335938 -7.62027344 29.09140625 -7.5625 27.75 C-7.51029297 26.43257812 -7.45808594 25.11515625 -7.40429688 23.7578125 C-7.27465443 20.50496572 -7.13968844 17.25242833 -7 14 C-7.66 14 -8.32 14 -9 14 C-8.50128936 9.54326841 -6.97995638 7.42312822 -3.9375 4.1875 C-3.20402344 3.39730469 -2.47054688 2.60710938 -1.71484375 1.79296875 C-1.14894531 1.20128906 -0.58304688 0.60960937 0 0 Z M24.80078125 25.3984375 C21.98867316 29.46104919 22.5748231 33.43937273 22.75 38.25 C22.76804687 39.18585937 22.78609375 40.12171875 22.8046875 41.0859375 C22.85173091 43.39106438 22.92347222 45.69566354 23 48 C28.28 48 33.56 48 39 48 C39.1356886 45.12340174 39.23440753 42.25326537 39.3125 39.375 C39.35439453 38.56675781 39.39628906 37.75851563 39.43945312 36.92578125 C39.52529273 32.70247264 39.36370414 29.85216501 36.703125 26.453125 C34.15283238 23.70001445 34.15283238 23.70001445 30.4375 23.375 C27.06402225 23.76524318 27.06402225 23.76524318 24.80078125 25.3984375 Z M15 27 C13.35 33.93 11.7 40.86 10 48 C10.99 47.67 11.98 47.34 13 47 C13.88932261 44.36772404 14.58099792 41.88490032 15.1875 39.1875 C15.36474609 38.46240234 15.54199219 37.73730469 15.72460938 36.99023438 C16.54094597 33.5452309 17 30.55787479 17 27 C16.34 27 15.68 27 15 27 Z M45 27 C46.32 33.6 47.64 40.2 49 47 C49.99 47.33 50.98 47.66 52 48 C51.87882812 47.40574219 51.75765625 46.81148437 51.6328125 46.19921875 C50.34170672 39.81321092 49.14614408 33.41352965 48 27 C47.01 27 46.02 27 45 27 Z " fill="#141518" transform="translate(9,9)"/>
<path d="M0 0 C1.32 0.33 2.64 0.66 4 1 C4 1.66 4 2.32 4 3 C4.556875 3.20625 5.11375 3.4125 5.6875 3.625 C9.02396774 5.60884569 10.88080395 7.75887664 13 11 C12.3125 14.1875 12.3125 14.1875 11 17 C11 17.99 11 18.98 11 20 C19.58 20 28.16 20 37 20 C37.66 21.32 38.32 22.64 39 24 C38.34 24 37.68 24 37 24 C37.495 25.98 37.495 25.98 38 28 C37.17242187 27.27876953 37.17242187 27.27876953 36.328125 26.54296875 C33.63856507 24.76045839 31.94178582 24.52248591 28.75 24.3125 C27.85796875 24.24675781 26.9659375 24.18101563 26.046875 24.11328125 C25.37140625 24.07589844 24.6959375 24.03851563 24 24 C23.773125 25.11375 23.54625 26.2275 23.3125 27.375 C22 31 22 31 19.375 32.4375 C18.199375 32.7159375 18.199375 32.7159375 17 33 C17 31.02 17 29.04 17 27 C16.34 27 15.68 27 15 27 C14.67 29.64 14.34 32.28 14 35 C13.34 35 12.68 35 12 35 C11.87625 36.216875 11.7525 37.43375 11.625 38.6875 C11.21108694 42.06479059 10.45426549 44.89756695 9 48 C6.625 48.125 6.625 48.125 4 48 C3.34 47.34 2.68 46.68 2 46 C-0.21072977 45.75746187 -0.21072977 45.75746187 -2.625 45.875 C-3.44226563 45.89304688 -4.25953125 45.91109375 -5.1015625 45.9296875 C-5.72804688 45.95289063 -6.35453125 45.97609375 -7 46 C-8.13916302 42.42525275 -8.03150662 39.21460618 -7.87890625 35.484375 C-7.83056641 34.23398437 -7.78222656 32.98359375 -7.73242188 31.6953125 C-7.67634766 30.39335938 -7.62027344 29.09140625 -7.5625 27.75 C-7.51029297 26.43257812 -7.45808594 25.11515625 -7.40429688 23.7578125 C-7.27465443 20.50496572 -7.13968844 17.25242833 -7 14 C-7.66 14 -8.32 14 -9 14 C-8.50128936 9.54326841 -6.97995638 7.42312822 -3.9375 4.1875 C-3.20402344 3.39730469 -2.47054688 2.60710938 -1.71484375 1.79296875 C-1.14894531 1.20128906 -0.58304688 0.60960937 0 0 Z " fill="#1A1C1F" transform="translate(9,9)"/>
<path d="M0 0 C0.7329126 -0.00298096 1.4658252 -0.00596191 2.22094727 -0.0090332 C8.31434609 0.23932202 10.96503723 2.40060227 15.05078125 6.6015625 C15.54964844 7.18679687 16.04851563 7.77203125 16.5625 8.375 C17.07425781 8.96539062 17.58601563 9.55578125 18.11328125 10.1640625 C19.25 11.75 19.25 11.75 19.25 13.75 C15.28725341 15.09353395 11.32023175 14.77832322 7.203125 14.62890625 C6.04632233 14.59348976 6.04632233 14.59348976 4.8661499 14.55735779 C2.41056736 14.48097661 -0.0446793 14.39684308 -2.5 14.3125 C-4.16795249 14.2592537 -5.83592121 14.20651348 -7.50390625 14.15429688 C-11.58614894 14.02539622 -15.66810783 13.88954376 -19.75 13.75 C-16.06969907 4.12145628 -10.1919909 0.01415403 0 0 Z " fill="#111315" transform="translate(39.75,61.25)"/>
<path d="M0 0 C1.32 0.66 2.64 1.32 4 2 C3.5155542 2.39872314 3.0311084 2.79744629 2.53198242 3.20825195 C0.59395355 5.4748964 0.5822835 6.71629823 0.48828125 9.66796875 C0.45283203 10.56064453 0.41738281 11.45332031 0.38085938 12.37304688 C0.35830078 13.30181641 0.33574219 14.23058594 0.3125 15.1875 C0.27833984 16.12787109 0.24417969 17.06824219 0.20898438 18.03710938 C0.12651782 20.35795393 0.05736597 22.67842148 0 25 C0.56847656 24.91621094 1.13695313 24.83242188 1.72265625 24.74609375 C2.49480469 24.64425781 3.26695313 24.54242188 4.0625 24.4375 C4.81660156 24.33308594 5.57070313 24.22867188 6.34765625 24.12109375 C9 24 9 24 16 25 C15.67 18.4 15.34 11.8 15 5 C15.66 5 16.32 5 17 5 C17 12.26 17 19.52 17 27 C7.95764309 28.80847138 0.01446779 27.70832554 -9 26 C-9.12117188 26.73605469 -9.24234375 27.47210938 -9.3671875 28.23046875 C-9.53476562 29.20628906 -9.70234375 30.18210937 -9.875 31.1875 C-10.03742187 32.15042969 -10.19984375 33.11335938 -10.3671875 34.10546875 C-10.98829526 36.94646164 -11.69908375 39.3981675 -13 42 C-15.625 42.8125 -15.625 42.8125 -18 43 C-19.22750646 39.31748062 -18.60943561 37.65397023 -17.625 33.9375 C-17.34914063 32.87402344 -17.07328125 31.81054688 -16.7890625 30.71484375 C-16 28 -16 28 -15 26 C-16.98 26 -18.96 26 -21 26 C-20.505 24.515 -20.505 24.515 -20 23 C-19.67 23.66 -19.34 24.32 -19 25 C-17.35 25 -15.7 25 -14 25 C-13.01 20.71 -12.02 16.42 -11 12 C-10.67 12 -10.34 12 -10 12 C-10.0721875 12.61488281 -10.144375 13.22976562 -10.21875 13.86328125 C-10.3115625 14.67152344 -10.404375 15.47976562 -10.5 16.3125 C-10.5928125 17.11300781 -10.685625 17.91351563 -10.78125 18.73828125 C-11.04813463 21.11896555 -11.04813463 21.11896555 -11 24 C-9.68 18.72 -8.36 13.44 -7 8 C-6.01 8 -5.02 8 -4 8 C-1.65323165 7.11013712 -1.65323165 7.11013712 -0.875 4 C0.04666667 1.36083333 0.04666667 1.36083333 0 0 Z " fill="#212428" transform="translate(32,32)"/>
<path d="M0 0 C0.5625 1.9375 0.5625 1.9375 1 4 C0.67 4.33 0.34 4.66 0 5 C-0.07558691 7.20713768 -0.08307456 9.41666424 -0.0625 11.625 C-0.05871338 12.28709473 -0.05492676 12.94918945 -0.05102539 13.63134766 C-0.03876703 15.75429641 -0.02013579 17.87711219 0 20 C0.02647919 22.79166291 0.04653361 25.58325941 0.0625 28.375 C0.07410156 29.62023437 0.08570312 30.86546875 0.09765625 32.1484375 C0 35 0 35 -1 36 C-2.68608966 36.07205511 -4.37500659 36.08386068 -6.0625 36.0625 C-6.98160156 36.05347656 -7.90070313 36.04445312 -8.84765625 36.03515625 C-9.55792969 36.02355469 -10.26820312 36.01195312 -11 36 C-11 36.99 -11 37.98 -11 39 C-12.65 39 -14.3 39 -16 39 C-15.7834375 39.80824219 -15.566875 40.61648437 -15.34375 41.44921875 C-15.0653125 42.51785156 -14.786875 43.58648437 -14.5 44.6875 C-14.08234375 46.27111328 -14.08234375 46.27111328 -13.65625 47.88671875 C-13.0608285 50.71142672 -12.87213508 53.12836708 -13 56 C-14.65 56 -16.3 56 -18 56 C-18.48108275 54.58398286 -18.95978141 53.16715563 -19.4375 51.75 C-19.70433594 50.96109375 -19.97117188 50.1721875 -20.24609375 49.359375 C-21.53312843 45.33155664 -22.11845321 42.00244364 -22.0625 37.75 C-22.05347656 36.85796875 -22.04445312 35.9659375 -22.03515625 35.046875 C-22.02355469 34.37140625 -22.01195312 33.6959375 -22 33 C-21.75507812 33.64453125 -21.51015625 34.2890625 -21.2578125 34.953125 C-20.20422131 37.16977388 -20.20422131 37.16977388 -18.0546875 37.609375 C-15.02734375 37.8046875 -15.02734375 37.8046875 -12 38 C-11.67 36.68 -11.34 35.36 -11 34 C-8.03 34 -5.06 34 -2 34 C-2 23.77 -2 13.54 -2 3 C-1.34 3 -0.68 3 0 3 C0 2.01 0 1.02 0 0 Z " fill="#4E5157" transform="translate(79,19)"/>
<path d="M0 0 C0.33 0 0.66 0 1 0 C0.9278125 0.61488281 0.855625 1.22976562 0.78125 1.86328125 C0.6884375 2.67152344 0.595625 3.47976562 0.5 4.3125 C0.4071875 5.11300781 0.314375 5.91351563 0.21875 6.73828125 C-0.04813463 9.11896555 -0.04813463 9.11896555 0 12 C0.66 10.68 1.32 9.36 2 8 C2.36830554 15.36611079 1.38276489 21.99379683 -1 29 C-1.66 29.66 -2.32 30.32 -3 31 C-5.625 30.625 -5.625 30.625 -8 30 C-7.52417032 27.70763814 -7.04423615 25.41612791 -6.5625 23.125 C-6.29566406 21.84882812 -6.02882813 20.57265625 -5.75390625 19.2578125 C-5 16 -5 16 -4 14 C-5.98 14 -7.96 14 -10 14 C-9.67 13.01 -9.34 12.02 -9 11 C-8.67 11.66 -8.34 12.32 -8 13 C-6.35 13 -4.7 13 -3 13 C-2.01 8.71 -1.02 4.42 0 0 Z " fill="#5F6269" transform="translate(21,44)"/>
<path d="M0 0 C1.32 0.66 2.64 1.32 4 2 C3.5155542 2.39872314 3.0311084 2.79744629 2.53198242 3.20825195 C0.59395355 5.4748964 0.5822835 6.71629823 0.48828125 9.66796875 C0.45283203 10.56064453 0.41738281 11.45332031 0.38085938 12.37304688 C0.35830078 13.30181641 0.33574219 14.23058594 0.3125 15.1875 C0.27833984 16.12787109 0.24417969 17.06824219 0.20898438 18.03710938 C0.12651782 20.35795393 0.05736597 22.67842148 0 25 C0.85271484 24.87431641 0.85271484 24.87431641 1.72265625 24.74609375 C2.49480469 24.64425781 3.26695313 24.54242188 4.0625 24.4375 C4.81660156 24.33308594 5.57070313 24.22867188 6.34765625 24.12109375 C9 24 9 24 16 25 C15.505 15.1 15.505 15.1 15 5 C15.66 5 16.32 5 17 5 C17 12.26 17 19.52 17 27 C13.51231809 27.69753638 10.93856189 28.13710761 7.5 28.125 C6.40171875 28.12886719 6.40171875 28.12886719 5.28125 28.1328125 C2.78200369 27.98730843 0.44802582 27.51059694 -2 27 C-1.86095156 23.24971611 -1.71258389 19.49985719 -1.5625 15.75 C-1.50352539 14.15478516 -1.50352539 14.15478516 -1.44335938 12.52734375 C-1.40146484 11.50253906 -1.35957031 10.47773437 -1.31640625 9.421875 C-1.27974854 8.47924805 -1.24309082 7.53662109 -1.20532227 6.56542969 C-1.02060772 4.25748623 -0.64138388 2.21859476 0 0 Z " fill="#808A96" transform="translate(32,32)"/>
<path d="M0 0 C0.5625 1.9375 0.5625 1.9375 1 4 C0.67 4.33 0.34 4.66 0 5 C-0.07558691 7.20713768 -0.08307456 9.41666424 -0.0625 11.625 C-0.05871338 12.28709473 -0.05492676 12.94918945 -0.05102539 13.63134766 C-0.03876703 15.75429641 -0.02013579 17.87711219 0 20 C0.02647919 22.79166291 0.04653361 25.58325941 0.0625 28.375 C0.07410156 29.62023437 0.08570312 30.86546875 0.09765625 32.1484375 C0 35 0 35 -1 36 C-2.68608966 36.07205511 -4.37500659 36.08386068 -6.0625 36.0625 C-6.98160156 36.05347656 -7.90070313 36.04445312 -8.84765625 36.03515625 C-9.55792969 36.02355469 -10.26820312 36.01195312 -11 36 C-11.33 36.99 -11.66 37.98 -12 39 C-11.67 37.35 -11.34 35.7 -11 34 C-8.03 34 -5.06 34 -2 34 C-2 23.77 -2 13.54 -2 3 C-1.34 3 -0.68 3 0 3 C0 2.01 0 1.02 0 0 Z " fill="#A8B3BD" transform="translate(79,19)"/>
<path d="M0 0 C3.24838923 1.08279641 4.04282583 1.89036845 6.1875 4.4375 C6.71730469 5.05496094 7.24710938 5.67242187 7.79296875 6.30859375 C9 8 9 8 9 10 C5.03725341 11.34353395 1.07023175 11.02832322 -3.046875 10.87890625 C-4.20367767 10.84348976 -4.20367767 10.84348976 -5.3838501 10.80735779 C-7.83943264 10.73097661 -10.2946793 10.64684308 -12.75 10.5625 C-14.41795249 10.5092537 -16.08592121 10.45651348 -17.75390625 10.40429688 C-21.83614894 10.27539622 -25.91810783 10.13954376 -30 10 C-29.67 9.34 -29.34 8.68 -29 8 C-17.45 8.33 -5.9 8.66 6 9 C6 8.34 6 7.68 6 7 C3.525 6.505 3.525 6.505 1 6 C1.33 4.68 1.66 3.36 2 2 C1.34 2 0.68 2 0 2 C0 1.34 0 0.68 0 0 Z " fill="#58606B" transform="translate(50,65)"/>
<path d="M0 0 C3.24838923 1.08279641 4.04282583 1.89036845 6.1875 4.4375 C6.71730469 5.05496094 7.24710938 5.67242187 7.79296875 6.30859375 C9 8 9 8 9 10 C7.68 10.33 6.36 10.66 5 11 C5.33 9.68 5.66 8.36 6 7 C4.35 6.67 2.7 6.34 1 6 C1.33 4.68 1.66 3.36 2 2 C1.34 2 0.68 2 0 2 C0 1.34 0 0.68 0 0 Z " fill="#708394" transform="translate(50,65)"/>
<path d="M0 0 C0.66 0.66 1.32 1.32 2 2 C1.01 2.495 1.01 2.495 0 3 C0 2.01 0 1.02 0 0 Z " fill="#DCF1FC" transform="translate(12,76)"/>
<path d="M0 0 C0.66 0 1.32 0 2 0 C2 0.66 2 1.32 2 2 C1.34 2 0.68 2 0 2 C0 1.34 0 0.68 0 0 Z " fill="#F6FCFE" transform="translate(71,73)"/>
<path d="M0 0 C0.66 0 1.32 0 2 0 C2 0.66 2 1.32 2 2 C1.34 2 0.68 2 0 2 C0 1.34 0 0.68 0 0 Z " fill="#E7F6FD" transform="translate(7,72)"/>
<path d="M0 0 C0.99 0.495 0.99 0.495 2 1 C1.01 1.495 1.01 1.495 0 2 C0 1.34 0 0.68 0 0 Z " fill="#F0F9FE" transform="translate(69,4)"/>
<path d="M0 0 C2 1 2 1 2 1 Z " fill="#F2FAFF" transform="translate(61,79)"/>
<path d="" fill="#F3FAFE" transform="translate(0,0)"/>
<path d="" fill="#F7FCFF" transform="translate(0,0)"/>
<path d="" fill="#F2FAFE" transform="translate(0,0)"/>
<path d="" fill="#F5FBFE" transform="translate(0,0)"/>
<path d="" fill="#EEF9FE" transform="translate(0,0)"/>
<path d="" fill="#E7F6FE" transform="translate(0,0)"/>
</svg>
