<?xml version="1.0" encoding="utf-8"?>
<!-- Generator: Adobe Illustrator 28.4.1, SVG Export Plug-In . SVG Version: 6.00 Build 0)  -->
<svg version="1.1" id="Layer_1" xmlns="http://www.w3.org/2000/svg" xmlns:xlink="http://www.w3.org/1999/xlink" x="0px" y="0px"
	 viewBox="0 0 80 80" style="enable-background:new 0 0 80 80;" xml:space="preserve">
<g>
	<g>
		<path d="M79.1,43.2c-0.6,6.9-1.3,14.2-1.9,21.5c-0.2,2.4-1.3,4-3.5,5c-5.8,2.5-11.6,5.1-17.4,7.6c-3.5,1.5-5.3-0.2-5.2-3.5
			c0.2-8.5,0.7-16.9,1.1-25.4c0.1-2.6,1.8-3.7,4.1-4.4c5.7-1.8,11.4-3.7,17.1-5.5C78.8,36.9,79.3,37.4,79.1,43.2z"/>
		<path d="M40.9,59c0,3.5,0,7,0,10.5c0,3.6-1.7,5.3-5.3,4.5c-6.3-1.4-12.6-2.8-19-4.2c-2.4-0.5-3.8-1.9-3.8-4.5
			c0-6.8,0-13.6,0.1-20.4c0.1-3.7,1.8-5.4,5.8-4.7c5.9,1.1,11.8,2.1,17.7,3c3.2,0.5,4.6,2.2,4.6,5.4C40.9,52,40.9,55.5,40.9,59z"/>
		<path d="M13.9,31.7c1.6-8.8,4.6-16.9,11.8-22.9c1.9-1.6,4.1-2.3,6.5-1.9c5.2,0.9,10.4,1.9,15.7,3c2.5,0.5,3,1.7,1.4,3.8
			c-5,6.7-8,14.1-8.3,22.6c-0.1,2.7-1.7,3.8-4.4,3.4c-6.3-0.9-12.5-1.8-18.8-2.7C14.8,36.5,13.5,34.8,13.9,31.7z"/>
		<path d="M79.2,28.5c0.7,3.6-0.9,5.6-4.6,6.6c-5.8,1.5-11.5,3.4-17.2,5.1c-3.3,1-4.5-0.2-4.6-3.6c-0.2-8.5,6.1-18.5,14.1-21.9
			c3.8-1.7,8.2,0.1,10.3,4.4C78.5,22,79.4,25,79.2,28.5z"/>
		<path d="M3.2,30.7C3,21.8,10.5,9.1,17.9,6.2c1.8-0.7,4-2.1,5.5-0.2c1.7,2.2-0.7,3.6-2,4.9c-6,5.8-7.8,13.3-9.5,21
			c-0.5,2.1-1,4.4-4.1,3.8C5,35.2,3.1,33.8,3.2,30.7z"/>
		<path d="M43.1,36.9c1.1-7.3,2.6-14.4,7.1-20.5c1.4-1.9,2.9-3.8,5.3-4.3c2.2-0.5,5.1-1.3,6.5,0.8c1.7,2.6-1.5,3.5-2.9,4.8
			c-4.3,4.2-7.1,9.1-8,15.1c-0.3,1.8-0.5,3.6-1.1,5.4c-0.6,2-2.1,3-4.2,2.7C43.8,40.5,43.1,39,43.1,36.9z"/>
		<path d="M11.1,53.6c0,3.5,0,7,0,10.4c0,2.3-1,3.8-3.7,3.4c-2.3-0.4-4.3-1-4-4c0.8-6.8,0.1-13.6,0.3-20.3c0-2.2,0.1-4.6,3.1-4.7
			c3.1-0.1,4.4,1.7,4.3,4.7C11.1,46.6,11.1,50.1,11.1,53.6C11.1,53.6,11.1,53.6,11.1,53.6z"/>
		<path d="M49.1,60.3c0,3.8,0,7.7,0,11.5c0,1.8,0.1,4-2.4,4.2c-2.4,0.2-3.8-1.3-3.8-3.7c-0.1-8.2-0.1-16.3,0-24.5
			c0-1.9,1-3.2,3.1-3.1c1.9,0.1,3.2,1.1,3.2,3.1c0.1,4.2,0,8.3,0,12.5C49.2,60.3,49.1,60.3,49.1,60.3z"/>
	</g>
</g>
</svg>
