<?xml version="1.0" encoding="utf-8"?>
<!-- Generator: Adobe Illustrator 28.4.1, SVG Export Plug-In . SVG Version: 6.00 Build 0)  -->
<svg version="1.1" id="Layer_1" xmlns="http://www.w3.org/2000/svg" xmlns:xlink="http://www.w3.org/1999/xlink" x="0px" y="0px"
	 viewBox="0 0 80 80" style="enable-background:new 0 0 80 80;" xml:space="preserve">
<g>
	<g>
		<path d="M47.8,2.2c4.4,14.2,8.9,28.3,13.2,42.5c0.6,2,3.6,5-0.4,6.4c-4.1,1.5-5.6-1.4-6.6-4.9c-2-6.9-4.2-13.7-6.5-21.2
			c-3.2,5.4-3.5,11.2-6.8,16.2c-3.1-5.1-4.2-10.4-6.7-16.6c-1.9,5.9-3.5,10.7-5,15.5c-0.9,2.7-1.7,5.5-2.5,8.2
			c-0.9,3.1-3.4,3.2-5.8,2.7c-3.3-0.7-1.4-3.1-1-4.6C24,31.8,28.6,17,33.2,2.2c0.6,0,1.3,0,1.9,0c1,6,3.1,11.7,5.3,18.1
			c2.7-6.4,3.5-12.6,6.3-18.1C47.1,2.2,47.4,2.2,47.8,2.2z"/>
		<path d="M33.9,52.4c-2.6,8.2-4.8,15.5-7.1,22.7c-0.6,1.8-1,3.7-3.6,3.9c-3.1,0.2-5.1-0.2-3.8-4.1c4.4-13.8,8.7-27.7,13-41.5
			c0.3-0.9,0.2-2.5,1.7-2.5c1.5,0,1.4,1.6,1.7,2.6c1.5,4.6,3,9.3,4.8,15.1c2.1-6.7,3.9-12.3,5.7-18c2.2,0.8,2.4,2.3,2.8,3.6
			c4.2,13.2,8.4,26.4,12.4,39.7c0.5,1.7,2.5,4.2-0.9,5.1c-3,0.8-5.2-0.1-6.2-3.5C52.3,68,50,60.8,47.5,52.7
			c-3.2,5.5-3.5,11.2-6.9,16.2C37.4,63.9,36.8,58.2,33.9,52.4z"/>
	</g>
</g>
</svg>
