<?xml version="1.0" encoding="UTF-8"?>
<svg version="1.1" xmlns="http://www.w3.org/2000/svg" width="80" height="80">
<path d="M0 0 C0.66 0 1.32 0 2 0 C2.34933594 1.14339844 2.69867188 2.28679688 3.05859375 3.46484375 C3.51806463 4.95577988 3.97770901 6.44666255 4.4375 7.9375 C4.66759766 8.69224609 4.89769531 9.44699219 5.13476562 10.22460938 C6.03001736 13.90208452 6.03001736 13.90208452 8 17 C9.65 11.39 11.3 5.78 13 0 C13.66 0 14.32 0 15 0 C19.13894082 12.20606558 23.20547014 24.43191445 27 36.75 C27.30236572 37.71881104 27.60473145 38.68762207 27.91625977 39.68579102 C28.19139404 40.58869873 28.46652832 41.49160645 28.75 42.421875 C28.99234375 43.21174805 29.2346875 44.00162109 29.484375 44.81542969 C30 47 30 47 30 51 C27.69 51 25.38 51 23 51 C20.83187019 45.4148469 19.00304501 39.82598031 17.375 34.0625 C16.35693604 29.14836721 16.35693604 29.14836721 14 25 C12.02 30.61 10.04 36.22 8 42 C5.24638858 39.24638858 4.52585973 36.00154636 3.375 32.375 C3.03082031 31.31539062 3.03082031 31.31539062 2.6796875 30.234375 C2.11437579 28.49133055 1.55647456 26.74588584 1 25 C0.60167969 26.2065625 0.20335937 27.413125 -0.20703125 28.65625 C-0.74210565 30.27086046 -1.27726652 31.88544227 -1.8125 33.5 C-2.07353516 34.29148438 -2.33457031 35.08296875 -2.60351562 35.8984375 C-4.29020221 40.97932054 -6.09008014 45.9986483 -8 51 C-10.31 51 -12.62 51 -15 51 C-13.78790832 44.37633152 -12.22656891 37.98635274 -10.21484375 31.5625 C-9.95369278 30.71574707 -9.69254181 29.86899414 -9.42347717 28.99658203 C-8.87700547 27.22795963 -8.32819142 25.46005935 -7.77709961 23.69287109 C-6.93140425 20.98044893 -6.09304727 18.26583999 -5.25585938 15.55078125 C-4.72177422 13.82539075 -4.18728384 12.10012563 -3.65234375 10.375 C-3.40129379 9.56361572 -3.15024384 8.75223145 -2.8915863 7.91625977 C-1.11707219 2.23414438 -1.11707219 2.23414438 0 0 Z " fill="#000000" transform="translate(32,0)"/>
<path d="M0 0 C0.66 0 1.32 0 2 0 C2.34933594 1.14339844 2.69867188 2.28679688 3.05859375 3.46484375 C3.51806463 4.95577988 3.97770901 6.44666255 4.4375 7.9375 C4.66759766 8.69224609 4.89769531 9.44699219 5.13476562 10.22460938 C6.03001736 13.90208452 6.03001736 13.90208452 8 17 C9.65 11.39 11.3 5.78 13 0 C13.66 0 14.32 0 15 0 C23.71699664 25.77249642 23.71699664 25.77249642 27.5625 38.4375 C27.81338379 39.25186523 28.06426758 40.06623047 28.32275391 40.90527344 C29.38119745 44.44555843 30 47.27382595 30 51 C27.69 51 25.38 51 23 51 C22.03976175 48.14646179 21.08175987 45.29220445 20.125 42.4375 C19.85558594 41.63763672 19.58617187 40.83777344 19.30859375 40.01367188 C17.75429443 35.36972877 16.30516823 30.72014724 15 26 C12.5456048 29.68159279 11.40246339 33.42704257 10 37.6015625 C9 40 9 40 7 41 C5.02 35.72 3.04 30.44 1 25 C0.60167969 26.2065625 0.20335937 27.413125 -0.20703125 28.65625 C-0.74210565 30.27086046 -1.27726652 31.88544227 -1.8125 33.5 C-2.07353516 34.29148438 -2.33457031 35.08296875 -2.60351562 35.8984375 C-4.29020221 40.97932054 -6.09008014 45.9986483 -8 51 C-10.31 51 -12.62 51 -15 51 C-13.78790832 44.37633152 -12.22656891 37.98635274 -10.21484375 31.5625 C-9.95369278 30.71574707 -9.69254181 29.86899414 -9.42347717 28.99658203 C-8.87700547 27.22795963 -8.32819142 25.46005935 -7.77709961 23.69287109 C-6.93140425 20.98044893 -6.09304727 18.26583999 -5.25585938 15.55078125 C-4.72177422 13.82539075 -4.18728384 12.10012563 -3.65234375 10.375 C-3.40129379 9.56361572 -3.15024384 8.75223145 -2.8915863 7.91625977 C-1.11707219 2.23414438 -1.11707219 2.23414438 0 0 Z " fill="#000000" transform="translate(32,29)"/>
</svg>
