<?xml version="1.0" encoding="UTF-8"?>
<svg version="1.1" xmlns="http://www.w3.org/2000/svg" width="80" height="80">
<path d="M0 0 C0.99 0 1.98 0 3 0 C4.18864093 5.05172397 4.35441693 10.13245916 4.60546875 15.29296875 C4.77423378 18.40639251 5.00851943 21.0255583 6 24 C7.18009796 21.63980407 7.29767685 19.83904283 7.53515625 17.2109375 C7.62216797 16.26992188 7.70917969 15.32890625 7.79882812 14.359375 C7.88583984 13.37453125 7.97285156 12.3896875 8.0625 11.375 C8.15337891 10.38242188 8.24425781 9.38984375 8.33789062 8.3671875 C8.56218436 5.91176132 8.78273107 3.45605611 9 1 C9.99 1.33 10.98 1.66 12 2 C13.09387239 6.4911021 13.25259787 10.84100984 13.3125 15.4375 C13.34150391 16.17548828 13.37050781 16.91347656 13.40039062 17.67382812 C13.46055288 22.88017711 12.57174763 25.95285338 9 30 C6.8605957 30.65795898 6.8605957 30.65795898 5 31 C5.00222061 31.58437836 5.00444122 32.16875671 5.00672913 32.77084351 C5.02880388 38.83745718 5.0439158 44.90405949 5.05493164 50.97070312 C5.05996926 53.23665836 5.06679952 55.50261033 5.07543945 57.76855469 C5.08752996 61.02019047 5.09323392 64.27178339 5.09765625 67.5234375 C5.10539818 69.05005508 5.10539818 69.05005508 5.11329651 70.60751343 C5.11337204 71.54833771 5.11344757 72.48916199 5.11352539 73.45849609 C5.115746 74.28900482 5.11796661 75.11951355 5.12025452 75.97518921 C5 78 5 78 4 80 C2.35 80 0.7 80 -1 80 C-2.19791173 77.60417654 -2.1206744 76.13222462 -2.11352539 73.45849609 C-2.11344986 72.51767181 -2.11337433 71.57684753 -2.11329651 70.60751343 C-2.10813522 69.58976837 -2.10297394 68.57202332 -2.09765625 67.5234375 C-2.0962413 66.48305328 -2.09482635 65.44266907 -2.09336853 64.37075806 C-2.08775866 61.03880979 -2.07520447 57.70692805 -2.0625 54.375 C-2.05748627 52.11979264 -2.05292314 49.86458422 -2.04882812 47.609375 C-2.03778603 42.07289386 -2.02103827 36.53645168 -2 31 C-2.78802002 30.71326416 -3.57604004 30.42652832 -4.38793945 30.13110352 C-7.82741515 28.64170349 -8.56570226 27.44881302 -10 24 C-10.3867238 21.17394149 -10.37435563 18.41033325 -10.3125 15.5625 C-10.31572266 14.82451172 -10.31894531 14.08652344 -10.32226562 13.32617188 C-10.27847091 8.84716654 -9.67694215 5.21573902 -8 1 C-7.34 1 -6.68 1 -6 1 C-5.91697632 1.93851807 -5.91697632 1.93851807 -5.83227539 2.89599609 C-5.57986101 5.72272197 -5.32125807 8.54884807 -5.0625 11.375 C-4.97548828 12.35984375 -4.88847656 13.3446875 -4.79882812 14.359375 C-4.71181641 15.30039063 -4.62480469 16.24140625 -4.53515625 17.2109375 C-4.456604 18.08024902 -4.37805176 18.94956055 -4.29711914 19.84521484 C-4.11122166 22.04492916 -4.11122166 22.04492916 -3 24 C-1.39088229 20.78176458 -1.65983045 17.23040821 -1.5 13.6875 C-1.07951864 4.50699033 -1.07951864 4.50699033 0 0 Z " fill="#161615" transform="translate(38,0)"/>
<path d="M0 0 C0.66 0 1.32 0 2 0 C2 2.31 2 4.62 2 7 C1.01 6.67 0.02 6.34 -1 6 C-1.042721 4.33388095 -1.04063832 2.66617115 -1 1 C-0.67 0.67 -0.34 0.34 0 0 Z " fill="#333332" transform="translate(30,1)"/>
<path d="M0 0 C0.99 0.33 1.98 0.66 3 1 C3 2.65 3 4.3 3 6 C2.01 6.495 2.01 6.495 1 7 C0.67 4.69 0.34 2.38 0 0 Z " fill="#313131" transform="translate(47,1)"/>
</svg>
