<?xml version="1.0" encoding="utf-8"?>
<!-- Generator: Adobe Illustrator 28.4.1, SVG Export Plug-In . SVG Version: 6.00 Build 0)  -->
<svg version="1.1" id="Layer_1" xmlns="http://www.w3.org/2000/svg" xmlns:xlink="http://www.w3.org/1999/xlink" x="0px" y="0px"
	 viewBox="0 0 80 80" style="enable-background:new 0 0 80 80;" xml:space="preserve">
<g>
	<g>
		<path d="M41.5,2.5C44.3,10,43,18,44.2,26.9c5.5-7.5,1.7-15.9,5-23c5.2,8.6,3.8,21.6-3,27.6c-2.2,2-2.4,4.3-2.4,6.8
			c0,11.1,0,22.1,0,33.2c0,1.3,0,2.5-0.1,3.8c-0.2,1.7-0.8,3.2-2.8,3.1c-1.7-0.1-2.3-1.5-2.4-3c-0.1-1.3-0.1-2.5-0.1-3.8
			c0-11.1,0-22.1,0-33.2c0-3.2-0.7-5.7-3.5-7.8c-3.3-2.5-4.9-6.1-5-10.3C29.8,14.9,30.2,9.4,32.4,3c3.6,8,0.2,16.4,5.4,24
			c1.1-9,0-17,2.7-24.5C40.9,2.5,41.2,2.5,41.5,2.5z"/>
	</g>
</g>
</svg>
