<?xml version="1.0" encoding="UTF-8"?>
<svg version="1.1" xmlns="http://www.w3.org/2000/svg" width="80" height="80">
<path d="M0 0 C4.29 0 8.58 0 13 0 C13 0.66 13 1.32 13 2 C13.66 2 14.32 2 15 2 C15 2.66 15 3.32 15 4 C27.87 4.495 27.87 4.495 41 5 C41 5.66 41 6.32 41 7 C41.66 7 42.32 7 43 7 C43.02474322 12.05370732 43.04288053 17.10737926 43.05493164 22.16113281 C43.0599563 23.87988906 43.0667771 25.59864105 43.07543945 27.31738281 C43.0875868 29.78972426 43.09324703 32.26200912 43.09765625 34.734375 C43.10281754 35.50118591 43.10797882 36.26799683 43.11329651 37.05804443 C43.11366987 40.61933069 42.87081748 43.5167301 42 47 C34.74 47.33 27.48 47.66 20 48 C20.05220703 50.96226563 20.05220703 50.96226563 20.10546875 53.984375 C20.13360498 56.57290817 20.16090531 59.16145053 20.1875 61.75 C20.21263672 63.05195312 20.23777344 64.35390625 20.26367188 65.6953125 C20.27333984 66.94570312 20.28300781 68.19609375 20.29296875 69.484375 C20.3086792 70.63647461 20.32438965 71.78857422 20.34057617 72.97558594 C19.9657992 76.30371293 19.37672753 77.67466684 17 80 C14.15234375 80.49609375 14.15234375 80.49609375 10.9375 80.4375 C9.87402344 80.43621094 8.81054688 80.43492188 7.71484375 80.43359375 C6.81894531 80.29050781 5.92304687 80.14742188 5 80 C2.93276286 76.89914429 2.75502577 76.27068319 2.8046875 72.76953125 C2.81113281 71.96708984 2.81757812 71.16464844 2.82421875 70.33789062 C2.84097656 69.50451172 2.85773437 68.67113281 2.875 67.8125 C2.88402344 66.96751953 2.89304687 66.12253906 2.90234375 65.25195312 C2.92589297 63.16784757 2.96176353 61.08388783 3 59 C2.67 59 2.34 59 2 59 C2 55.37 2 51.74 2 48 C-3.94 47.67 -9.88 47.34 -16 47 C-16 46.34 -16 45.68 -16 45 C-16.9075 45.061875 -17.815 45.12375 -18.75 45.1875 C-22.46449866 44.973202 -23.51304964 44.72227469 -26 42 C-26.33582686 39.19014594 -26.42190799 36.79882287 -26.3125 34 C-26.29703125 33.21705566 -26.2815625 32.43411133 -26.265625 31.62744141 C-26.05434233 22.7447658 -25.55051524 13.86722756 -25 5 C-21.535 4.505 -21.535 4.505 -18 4 C-18 3.67 -18 3.34 -18 3 C-12.39 3 -6.78 3 -1 3 C-0.67 2.01 -0.34 1.02 0 0 Z " fill="#010101" transform="translate(31,0)"/>
<path d="M0 0 C0.66 0 1.32 0 2 0 C2.02474322 5.05370732 2.04288053 10.10737926 2.05493164 15.16113281 C2.0599563 16.87988906 2.0667771 18.59864105 2.07543945 20.31738281 C2.0875868 22.78972426 2.09324703 25.26200912 2.09765625 27.734375 C2.10281754 28.50118591 2.10797882 29.26799683 2.11329651 30.05804443 C2.11366987 33.61933069 1.87081748 36.5167301 1 40 C-9.89 40.495 -9.89 40.495 -21 41 C-20.96519531 42.97484375 -20.93039063 44.9496875 -20.89453125 46.984375 C-20.86639502 49.57290817 -20.83909469 52.16145053 -20.8125 54.75 C-20.78736328 56.05195312 -20.76222656 57.35390625 -20.73632812 58.6953125 C-20.72666016 59.94570312 -20.71699219 61.19609375 -20.70703125 62.484375 C-20.6913208 63.63647461 -20.67561035 64.78857422 -20.65942383 65.97558594 C-21.03545007 69.31480679 -21.53343802 70.73130546 -24 73 C-25.32 73 -26.64 73 -28 73 C-28 72.34 -28 71.68 -28 71 C-27.01 71 -26.02 71 -25 71 C-25 70.01 -25 69.02 -25 68 C-24.34 68 -23.68 68 -23 68 C-23 57.77 -23 47.54 -23 37 C-16.07 37 -9.14 37 -2 37 C-2 36.01 -2 35.02 -2 34 C-1.34 34 -0.68 34 0 34 C0 22.78 0 11.56 0 0 Z " fill="#23201D" transform="translate(72,7)"/>
<path d="M0 0 C1.32 0 2.64 0 4 0 C3.67 0.99 3.34 1.98 3 3 C2.17393204 10.86294315 1.89380495 18.78447615 1.8125 26.6875 C1.79832031 27.99074219 1.78414063 29.29398438 1.76953125 30.63671875 C1.79968394 34.24106804 1.79968394 34.24106804 4 38 C12.25 38.33 20.5 38.66 29 39 C29 43.62 29 48.24 29 53 C28.01 53.495 28.01 53.495 27 54 C27 50.37 27 46.74 27 43 C21.06 42.67 15.12 42.34 9 42 C9 41.34 9 40.68 9 40 C8.0925 40.061875 7.185 40.12375 6.25 40.1875 C2.53550134 39.973202 1.48695036 39.72227469 -1 37 C-1.33582686 34.19014594 -1.42190799 31.79882287 -1.3125 29 C-1.29703125 28.21705566 -1.2815625 27.43411133 -1.265625 26.62744141 C-1.05434233 17.7447658 -0.55051524 8.86722756 0 0 Z " fill="#27241F" transform="translate(6,5)"/>
<path d="M0 0 C4.29 0 8.58 0 13 0 C13 0.66 13 1.32 13 2 C13.66 2 14.32 2 15 2 C14.34 3.32 13.68 4.64 13 6 C12.67 5.01 12.34 4.02 12 3 C11.34 3 10.68 3 10 3 C10 2.34 10 1.68 10 1 C8.02 1.33 6.04 1.66 4 2 C3.67 3.32 3.34 4.64 3 6 C0.16615892 6.82514784 -2.16935251 7.07936233 -5.109375 6.87890625 C-5.86347656 6.83056641 -6.61757813 6.78222656 -7.39453125 6.73242188 C-8.17183594 6.67634766 -8.94914062 6.62027344 -9.75 6.5625 C-10.54277344 6.51029297 -11.33554687 6.45808594 -12.15234375 6.40429688 C-14.10193997 6.27510676 -16.05102886 6.13830035 -18 6 C-18 5.01 -18 4.02 -18 3 C-12.39 3 -6.78 3 -1 3 C-0.67 2.01 -0.34 1.02 0 0 Z " fill="#2B261F" transform="translate(31,0)"/>
<path d="M0 0 C1.32 0 2.64 0 4 0 C4 0.66 4 1.32 4 2 C3.01 2.495 3.01 2.495 2 3 C2.01571045 3.82725586 2.0314209 4.65451172 2.04760742 5.50683594 C2.10996304 9.25448777 2.14899346 13.00203045 2.1875 16.75 C2.21263672 18.05195312 2.23777344 19.35390625 2.26367188 20.6953125 C2.27333984 21.94570312 2.28300781 23.19609375 2.29296875 24.484375 C2.3086792 25.63647461 2.32438965 26.78857422 2.34057617 27.97558594 C1.96454993 31.31480679 1.46656198 32.73130546 -1 35 C-2.32 35 -3.64 35 -5 35 C-5 34.34 -5 33.68 -5 33 C-4.01 33 -3.02 33 -2 33 C-2 32.01 -2 31.02 -2 30 C-1.34 30 -0.68 30 0 30 C0 20.1 0 10.2 0 0 Z " fill="#322B25" transform="translate(49,45)"/>
<path d="M0 0 C1.32 0 2.64 0 4 0 C3.67 0.99 3.34 1.98 3 3 C2.74209367 6.213083 2.55803856 9.42000017 2.39453125 12.63867188 C2.10085306 17.79829388 2.10085306 17.79829388 1 20 C0.76970044 22.37123246 0.58880058 24.74741943 0.4375 27.125 C0.35371094 28.40632813 0.26992187 29.68765625 0.18359375 31.0078125 C0.12300781 31.99523437 0.06242188 32.98265625 0 34 C-0.33 34 -0.66 34 -1 34 C-1.15298709 22.62795953 -0.68416471 11.34980389 0 0 Z " fill="#2B2824" transform="translate(6,5)"/>
<path d="M0 0 C1.65 0 3.3 0 5 0 C5 0.66 5 1.32 5 2 C12.26 2 19.52 2 27 2 C26.67 2.66 26.34 3.32 26 4 C17.75 3.67 9.5 3.34 1 3 C0.67 2.01 0.34 1.02 0 0 Z " fill="#131210" transform="translate(45,5)"/>
<path d="M0 0 C0.66 0.33 1.32 0.66 2 1 C2.185625 2.7015625 2.185625 2.7015625 2.375 4.4375 C2.684375 6.2009375 2.684375 6.2009375 3 8 C4.93597032 9.51294288 4.93597032 9.51294288 7 10 C7 10.66 7 11.32 7 12 C4.125 12.1875 4.125 12.1875 1 12 C-1.23551759 8.64672361 -1.17283528 8.09256343 -0.625 4.3125 C-0.51414063 3.50425781 -0.40328125 2.69601563 -0.2890625 1.86328125 C-0.19367187 1.24839844 -0.09828125 0.63351563 0 0 Z " fill="#272622" transform="translate(35,68)"/>
<path d="" fill="#28221B" transform="translate(0,0)"/>
<path d="" fill="#2A231D" transform="translate(0,0)"/>
</svg>
