<?xml version="1.0" encoding="utf-8"?>
<!-- Generator: Adobe Illustrator 28.4.1, SVG Export Plug-In . SVG Version: 6.00 Build 0)  -->
<svg version="1.1" id="Layer_1" xmlns="http://www.w3.org/2000/svg" xmlns:xlink="http://www.w3.org/1999/xlink" x="0px" y="0px"
	 viewBox="0 0 80 80" style="enable-background:new 0 0 80 80;" xml:space="preserve">
<g>
	<g>
		<path d="M39,35.7c1.8,5.3,0.4,10.8,1,16c4.4-6.9,9.9-12.5,18.7-13.6c4.1-0.5,5.3,0.7,3.8,4.5c-3,7.6-7.5,13.3-16.7,13.4
			c-3.5,0-6,1.8-6.5,5.8c-0.7,4.9-2.9,9.3-5.7,13.4c-0.8,1.2-1.7,3.2-3.5,2.1c-2-1.2-0.6-2.9,0.1-4.4c0.4-0.7,0.9-1.4,1.3-2.1
			c3.4-5.9,3.1-8.6-2.7-12c-5.3-3.1-7.3-7.8-8.2-13.4C20.3,44,20,42.7,21.4,42c1.2-0.7,2.7-0.4,3.5,0.5c4.4,4.8,9.6,9.1,11,16
			c0-6.9-0.1-13.8,0.1-20.7c0-1.3-0.9-4,2.4-2.7C38.6,35.3,38.8,35.5,39,35.7z"/>
		<path d="M46.1,18.7c-2.8,0.5-5.3-0.4-5.8-4c-0.5-3.3,3.2-6.4,7.3-6.5c3.5-0.1,6.2,1.9,6.2,4.9C54,16.5,51.4,18.5,46.1,18.7z"/>
		<path d="M40.1,9.9c0.1,3.9-2.4,6.7-6.3,6.5c-3.2-0.2-4.7-2.8-5.2-5.6c-0.5-2.6,3.8-7.5,6.1-7.5C36.9,3.2,40,7.1,40.1,9.9z"/>
		<path d="M41.9,24.2c0.1-2-0.6-4.8,2.5-4.9c3.4-0.1,7.4-1.2,10,2.6c1.7,2.5,0.8,4.6-1,6.4c-3.2,3.1-5.8,0.9-8.4-1.1
			C43.9,26.2,42.9,25.2,41.9,24.2z"/>
		<path d="M30,23.7c-1.7,0.6-3.4,1.4-5.1,1.9c-2.2,0.7-4.3,0.1-5.3-2.1c-1-2.2-0.6-4.4,1.3-6.1c2.3-2,7.9-2.3,10.3-0.5
			c2.2,1.5,1.9,4.1-0.8,6.5C30.4,23.5,30.2,23.6,30,23.7z"/>
		<path d="M41.9,24.2c1,1,2,2,3.1,3c0.2,1.1,0.5,2.2,0.6,3.3c0.7,4.7-2.1,7-6.6,5.3c-0.2-0.2-0.4-0.4-0.6-0.6
			c-0.4-0.7-0.7-1.5-1.1-2.2C34.1,27.7,35.6,24.8,41.9,24.2z"/>
		<path d="M30.5,23.4c4.4,0.8,5.7,2.4,4.8,6c-0.8,3.3-5,6.3-7.8,5.5c-2.7-0.8-3.4-5.1-1.1-7.8c1.1-1.3,2.4-2.2,3.7-3.3
			C30.2,23.6,30.4,23.5,30.5,23.4z"/>
	</g>
</g>
</svg>
