<?xml version="1.0" encoding="UTF-8"?>
<svg version="1.1" xmlns="http://www.w3.org/2000/svg" width="80" height="80">
<path d="M0 0 C4.875 3.75 4.875 3.75 6 6 C6.1875 9 6.1875 9 6 12 C5.34 12.66 4.68 13.32 4 14 C2.68 14 1.36 14 0 14 C0.33 18.29 0.66 22.58 1 27 C2.98567708 24.98177083 4.97135417 22.96354167 6.95703125 20.9453125 C12.01455404 16.1295451 17.75614727 15.11381939 24.5625 14.875 C25.366875 14.91625 26.17125 14.9575 27 15 C27.50791521 20.33310969 26.34625913 22.86120581 23 27 C17.86061931 31.98822243 13.1887084 34.09848415 6.25 35.625 C5.07953125 35.88539062 3.9090625 36.14578125 2.703125 36.4140625 C1.81109375 36.60742188 0.9190625 36.80078125 0 37 C-0.14695312 37.68964844 -0.29390625 38.37929688 -0.4453125 39.08984375 C-2.00247271 45.61380807 -3.95141662 52.28876436 -9 57 C-11.6953125 57.23828125 -11.6953125 57.23828125 -14 57 C-13.37494689 54.01437396 -12.37398164 51.70930325 -10.875 49.0625 C-9.64329591 46.59909183 -9.00778819 45.08372308 -8.75 42.3125 C-10.4716898 39.12737387 -12.84426493 38.08516432 -15.9296875 36.3046875 C-20.42223502 33.47353491 -22.96284388 29.88764692 -24.375 24.75 C-25 21 -25 21 -24 19 C-20.45169382 18.47819027 -19.14259128 18.90390588 -16.125 20.9375 C-12.19062919 24.48253203 -9.15584736 28.77116454 -6 33 C-5.67 26.07 -5.34 19.14 -5 12 C-4.34 12 -3.68 12 -3 12 C-3.66 11.01 -4.32 10.02 -5 9 C-5.07905064 6.66800612 -5.08798769 4.33167378 -5 2 C-3.35 1.34 -1.7 0.68 0 0 Z " fill="#000000" transform="translate(39,22)"/>
<path d="M0 0 C0 0.66 0 1.32 0 2 C1.32 2.66 2.64 3.32 4 4 C3.67 7.3 3.34 10.6 3 14 C3.6496875 12.329375 3.6496875 12.329375 4.3125 10.625 C6 7 6 7 9 5 C12.55225172 4.44854157 15.86940917 4.3287117 19 6.1875 C20.38323858 8.69461993 20.49315303 10.1819827 20 13 C18 14.8125 18 14.8125 16 16 C16.804375 16.391875 17.60875 16.78375 18.4375 17.1875 C21 19 21 19 21.9375 21.5 C22 24 22 24 20 27 C16.91066054 27.86828685 14.10819512 27.73908223 11 27 C8.2449949 24.98634173 6.11561722 22.66663006 4 20 C3.34 20.66 2.68 21.32 2 22 C-2.55555556 21.44444444 -2.55555556 21.44444444 -4 20 C-4 18.33333333 -4 16.66666667 -4 15 C-4.33 14.67 -4.66 14.34 -5 14 C-5 15.65 -5 17.3 -5 19 C-12.84944978 24.04109108 -12.84944978 24.04109108 -17.5 23.875 C-20 23 -20 23 -21 22 C-21.45434298 16.77505568 -21.45434298 16.77505568 -19.9375 14.1875 C-16.30550884 11.9614409 -12.16781909 12 -8 12 C-8.66 11.34 -9.32 10.68 -10 10 C-9.81597683 6.62624187 -9.59820495 3.9760186 -7.8125 1.0625 C-5.19357381 -0.47273259 -2.97085195 -0.1980568 0 0 Z M4 15 C4.33 15.99 4.66 16.98 5 18 C5.66 17.34 6.32 16.68 7 16 C6.01 15.67 5.02 15.34 4 15 Z " fill="#000000" transform="translate(35,1)"/>
<path d="M0 0 C0.86625 0.268125 1.7325 0.53625 2.625 0.8125 C3.10904255 7.10505319 3.10904255 7.10505319 1 10.1875 C-1.89872332 12.17083701 -3.86711723 12.7378642 -7.375 12.8125 C-9.3125 11.6875 -9.3125 11.6875 -10.375 9.8125 C-10.4766372 5.95028628 -9.34562693 4.78107764 -6.6875 1.9375 C-3.375 -0.1875 -3.375 -0.1875 0 0 Z " fill="#000000" transform="translate(30.375,22.1875)"/>
</svg>
