<?xml version="1.0" encoding="utf-8"?>
<!-- Generator: Adobe Illustrator 28.4.1, SVG Export Plug-In . SVG Version: 6.00 Build 0)  -->
<svg version="1.1" id="Layer_1" xmlns="http://www.w3.org/2000/svg" xmlns:xlink="http://www.w3.org/1999/xlink" x="0px" y="0px"
	 viewBox="0 0 80 80" style="enable-background:new 0 0 80 80;" xml:space="preserve">
<g>
	<g>
		<path d="M78.3,57.1c-4.9,0-9.8,0-14.7,0.1c-2.4,0.1-3.3-0.8-3.2-3.2c0.1-3.8-0.2-7.7,0.1-11.5c0.2-3.2-1-4.1-4.2-4.1
			c-15.6,0.1-31.3,0-46.9,0.1c-3.4,0-4.8-1.4-4.7-4.6c0.1-2.5,1.1-4,3.9-3.9c11.6,0.2,23.2,0.3,34.9,0.3c4.9,0,9.8-0.2,14.7-0.4
			c0.9,0,2.2,0,2.3-1.1c0.2-4.5,3.5-3.2,6-3.3c4-0.1,8,0,11.9,0C78.3,36.2,78.3,46.6,78.3,57.1z M14.6,37.7c2.6,0,4.7-0.3,6.8,0.1
			c4.2,0.7,5.2-2.3,6.5-5c0.5-1.1,0.2-1.5-1-1.9C21.3,29.2,17.2,31.2,14.6,37.7z M39.4,37.7c1.9,0,3.7-0.2,5.5,0
			c3.9,0.6,6-1.2,7.3-4.6c0.4-1,0.9-1.9-0.8-2.4C45.3,28.9,41,31.2,39.4,37.7z"/>
	</g>
</g>
</svg>
