<?xml version="1.0" encoding="UTF-8"?>
<svg version="1.1" xmlns="http://www.w3.org/2000/svg" width="80" height="80">
<path d="M0 0 C6.27 0 12.54 0 19 0 C19 11.88 19 23.76 19 36 C12.4 36 5.8 36 -1 36 C-1 29.07 -1 22.14 -1 15 C-2.78204834 15.00523682 -4.56409668 15.01047363 -6.40014648 15.01586914 C-12.27546682 15.03196742 -18.15078638 15.04347258 -24.02612209 15.05181217 C-27.58977422 15.05703995 -31.15340257 15.06413569 -34.71704102 15.07543945 C-38.81006097 15.08834176 -42.9030558 15.09322906 -46.99609375 15.09765625 C-48.92418129 15.10539818 -48.92418129 15.10539818 -50.89122009 15.11329651 C-52.66294334 15.11340981 -52.66294334 15.11340981 -54.47045898 15.11352539 C-56.03932106 15.11685631 -56.03932106 15.11685631 -57.63987732 15.12025452 C-60 15 -60 15 -61 14 C-61.1328125 12.1875 -61.1328125 12.1875 -61.125 10 C-61.12757812 9.278125 -61.13015625 8.55625 -61.1328125 7.8125 C-61 6 -61 6 -60 5 C-58.15881971 4.90618698 -56.31402359 4.88256046 -54.47045898 4.88647461 C-53.28931015 4.88655014 -52.10816132 4.88662567 -50.89122009 4.88670349 C-49.6058284 4.89186478 -48.32043671 4.89702606 -46.99609375 4.90234375 C-45.0338662 4.90446617 -45.0338662 4.90446617 -43.03199768 4.90663147 C-39.54837141 4.9104559 -36.06478661 4.92028554 -32.58117676 4.93133545 C-29.02873292 4.94155118 -25.47628241 4.94612944 -21.92382812 4.95117188 C-14.94920168 4.96190788 -7.97460283 4.9789834 -1 5 C-0.67 3.35 -0.34 1.7 0 0 Z M-46 7 C-46.99 8.98 -47.98 10.96 -49 13 C-45.37 13 -41.74 13 -38 13 C-37.34 11.02 -36.68 9.04 -36 7 C-39.3 7 -42.6 7 -46 7 Z M-20 7 C-20.66 8.98 -21.32 10.96 -22 13 C-18.7 13 -15.4 13 -12 13 C-11.01 11.02 -10.02 9.04 -9 7 C-12.63 7 -16.26 7 -20 7 Z M9 8 C8.67 9.32 8.34 10.64 8 12 C8.99 11.67 9.98 11.34 11 11 C10.67 10.01 10.34 9.02 10 8 C9.67 8 9.34 8 9 8 Z " fill="#221E20" transform="translate(61,22)"/>
</svg>
