<?xml version="1.0" encoding="UTF-8"?>
<svg version="1.1" xmlns="http://www.w3.org/2000/svg" width="80" height="80">
<path d="M0 0 C5.93323373 3.4647155 10.27111781 8.11718625 12.1640625 14.84765625 C12.8240625 14.84765625 13.4840625 14.84765625 14.1640625 14.84765625 C15.012321 16.86227019 15.84200915 18.88470813 16.6640625 20.91015625 C17.36015625 22.59818359 17.36015625 22.59818359 18.0703125 24.3203125 C20.93675357 33.56458495 18.20517188 45.93195357 13.80859375 54.484375 C12.37569349 56.43972682 10.87279346 58.13069044 9.1640625 59.84765625 C8.63941406 60.45738281 8.11476563 61.06710938 7.57421875 61.6953125 C3.23191317 66.5076088 -1.7805584 69.55042327 -7.8359375 71.84765625 C-8.8259375 71.84765625 -9.8159375 71.84765625 -10.8359375 71.84765625 C-10.8359375 72.50765625 -10.8359375 73.16765625 -10.8359375 73.84765625 C-17.4359375 73.84765625 -24.0359375 73.84765625 -30.8359375 73.84765625 C-30.8359375 73.18765625 -30.8359375 72.52765625 -30.8359375 71.84765625 C-31.6403125 71.82703125 -32.4446875 71.80640625 -33.2734375 71.78515625 C-38.47821278 70.41547855 -41.76062603 67.24742059 -45.8359375 63.84765625 C-46.8878125 63.12578125 -47.9396875 62.40390625 -49.0234375 61.66015625 C-53.27010687 57.41348688 -55.36340111 52.26191515 -57.8359375 46.84765625 C-58.20976563 46.12191406 -58.58359375 45.39617188 -58.96875 44.6484375 C-60.21197691 42.06678162 -60.50772173 39.69219294 -60.8359375 36.84765625 C-60.9803125 35.67203125 -61.1246875 34.49640625 -61.2734375 33.28515625 C-61.1603222 23.46297813 -53.7485545 12.37805488 -47.4609375 5.09765625 C-34.01747944 -6.4253078 -15.69800275 -7.52969071 0 0 Z M-38.8359375 16.84765625 C-44.25061061 23.88533215 -45.54469451 30.05906929 -44.8359375 38.84765625 C-43.62013006 44.91712015 -41.67373291 48.81616008 -36.8359375 52.84765625 C-36.0521875 53.56953125 -35.2684375 54.29140625 -34.4609375 55.03515625 C-28.67299087 59.03159559 -22.79965407 59.36455599 -15.9765625 58.64453125 C-9.23429066 56.93380556 -3.06186512 52.29060445 0.7890625 46.47265625 C3.49013163 39.35165581 3.67343604 32.2687428 2.1640625 24.84765625 C-0.79677566 18.48185421 -6.24944955 13.34384868 -12.8359375 10.84765625 C-22.498215 8.85454071 -31.51266604 9.73820293 -38.8359375 16.84765625 Z " fill="#062441" transform="translate(60.8359375,6.15234375)"/>
<path d="M0 0 C2.74733568 1.5699061 3.81466234 2.44486125 4.828125 5.48046875 C4.96734375 6.37378906 5.1065625 7.26710938 5.25 8.1875 C5.39953125 9.08855469 5.5490625 9.98960938 5.703125 10.91796875 C5.85007812 11.94857422 5.85007812 11.94857422 6 13 C7.85625 13.1546875 7.85625 13.1546875 9.75 13.3125 C13.2792866 13.73801682 15.37160966 14.48112592 18 17 C17.505 19.475 17.505 19.475 17 22 C15.02 22.66 13.04 23.32 11 24 C13.57784846 26.64752004 15.91648098 28.94432065 19 31 C18.67 32.65 18.34 34.3 18 36 C16.68 36 15.36 36 14 36 C14 36.99 14 37.98 14 39 C11.69 38.67 9.38 38.34 7 38 C6.34 39.32 5.68 40.64 5 42 C4.01 42 3.02 42 2 42 C1.67 42.99 1.34 43.98 1 45 C-2.82561437 44.73916266 -4.52732694 44.48580286 -7.25 41.6875 C-7.8275 40.800625 -8.405 39.91375 -9 39 C-9.4125 38.401875 -9.825 37.80375 -10.25 37.1875 C-11.41843722 33.77955812 -11.1196222 30.58866602 -11 27 C-12.27875 27.20625 -13.5575 27.4125 -14.875 27.625 C-17.0546875 27.9765625 -17.0546875 27.9765625 -19 28 C-21 26 -21 26 -21.125 23.75 C-19.80567933 20.52499391 -18.8822702 20.16221414 -16 18.375 C-13.18524566 16.46196342 -12.14749556 15.69031937 -11.42578125 12.3125 C-11.35113535 10.37685448 -11.29215783 8.44053175 -11.25 6.50390625 C-11 4 -11 4 -8.8125 1.3125 C-5.51401379 -0.22679356 -3.59789405 -0.53585656 0 0 Z " fill="#082745" transform="translate(40,18)"/>
<path d="M0 0 C6.62476259 2.37019284 11.08781997 5.05879101 15 11 C16.375 13.9375 16.375 13.9375 17 16 C17.66 16 18.32 16 19 16 C19.83739781 18.1234016 20.66980283 20.2487728 21.5 22.375 C21.9640625 23.55835937 22.428125 24.74171875 22.90625 25.9609375 C24 29 24 29 24 31 C23.01 30.67 22.02 30.34 21 30 C20.67 27.03 20.34 24.06 20 21 C19.34 21 18.68 21 18 21 C18 20.01 18 19.02 18 18 C17.01 17.67 16.02 17.34 15 17 C14.67 15.35 14.34 13.7 14 12 C13.01 11.67 12.02 11.34 11 11 C8.3125 8.5625 8.3125 8.5625 6 6 C6 5.34 6 4.68 6 4 C3.03 3.505 3.03 3.505 0 3 C0 2.01 0 1.02 0 0 Z " fill="#001328" transform="translate(56,5)"/>
<path d="M0 0 C0.70125 0.721875 1.4025 1.44375 2.125 2.1875 C8.81181903 8.79918623 13.83832887 12.08438291 23.4375 12.125 C24.95857296 12.09326375 26.47959282 12.05506505 28 12 C27.01 13.485 27.01 13.485 26 15 C24.1171875 15.328125 24.1171875 15.328125 21.875 15.25 C21.07964844 15.22421875 20.28429687 15.1984375 19.46484375 15.171875 C15.94695804 14.92657077 12.48987058 14.50761754 9 14 C9 13.34 9 12.68 9 12 C8.34 12 7.68 12 7 12 C5.2734375 10.390625 5.2734375 10.390625 3.375 8.25 C2.74335938 7.55390625 2.11171875 6.8578125 1.4609375 6.140625 C0 4 0 4 0 0 Z " fill="#001629" transform="translate(18,52)"/>
<path d="M0 0 C-0.66 1.32 -1.32 2.64 -2 4 C-2.99 4 -3.98 4 -5 4 C-5.33 4.99 -5.66 5.98 -6 7 C-6.99 6.67 -7.98 6.34 -9 6 C-8.8125 3.625 -8.8125 3.625 -8 1 C-4.72494404 -0.89608503 -3.64512471 -1.21504157 0 0 Z " fill="#00152A" transform="translate(47,56)"/>
<path d="M0 0 C0.33 0 0.66 0 1 0 C1.33 5.28 1.66 10.56 2 16 C1.34 16 0.68 16 0 16 C-0.98204842 12.71871122 -1.13412615 9.73024479 -1.125 6.3125 C-1.12757812 5.33925781 -1.13015625 4.36601563 -1.1328125 3.36328125 C-1 1 -1 1 0 0 Z " fill="#00172D" transform="translate(15,35)"/>
<path d="M0 0 C0.66 0 1.32 0 2 0 C1.44854729 5.23880078 0.57077907 9.97350697 -1 15 C-1.66 15 -2.32 15 -3 15 C-2 10 -1 5 0 0 Z " fill="#001221" transform="translate(77,42)"/>
<path d="M0 0 C4.21912747 0.4794463 6.79663178 1.16625119 10 4 C9.67 5.65 9.34 7.3 9 9 C8.01 8.67 7.02 8.34 6 8 C6.66 6.68 7.32 5.36 8 4 C3.545 3.01 3.545 3.01 -1 2 C-0.67 1.34 -0.34 0.68 0 0 Z " fill="#001E2F" transform="translate(48,31)"/>
<path d="M0 0 C0.99 0.33 1.98 0.66 3 1 C3.94921875 3.50390625 3.94921875 3.50390625 4.6875 6.5625 C4.93886719 7.57441406 5.19023438 8.58632813 5.44921875 9.62890625 C5.63097656 10.41136719 5.81273437 11.19382812 6 12 C3 11 3 11 1 8 C0.46083854 5.3397977 0.26629902 2.70737337 0 0 Z " fill="#031B2E" transform="translate(41,20)"/>
<path d="M0 0 C2.93200474 2.85276137 5.64315404 5.65079784 8 9 C4.21304827 8.4590069 2.37254028 6.96567536 0 4 C0 2.68 0 1.36 0 0 Z " fill="#000F1F" transform="translate(18,52)"/>
<path d="M0 0 C0.33 0.99 0.66 1.98 1 3 C-3.75 7 -3.75 7 -6 7 C-4.60667426 3.63279613 -3.0210714 2.0140476 0 0 Z " fill="#031C36" transform="translate(26,34)"/>
<path d="M0 0 C0.66 0 1.32 0 2 0 C3.03789581 1.64333504 4.03567924 3.31243867 5 5 C5.66 5.66 6.32 6.32 7 7 C5.68 7 4.36 7 3 7 C0 2.92857143 0 2.92857143 0 0 Z " fill="#00182A" transform="translate(48,40)"/>
<path d="M0 0 C3.26954202 0.56371414 4.82575883 1.49962266 7 4 C6.67 4.66 6.34 5.32 6 6 C5.01 5.34 4.02 4.68 3 4 C3 3.34 3 2.68 3 2 C2.01 2 1.02 2 0 2 C0 1.34 0 0.68 0 0 Z " fill="#0B1F40" transform="translate(0,62)"/>
<path d="M0 0 C1.2077558 3.62326739 0.54311128 4.64146369 -1 8 C-1.66 8 -2.32 8 -3 8 C-3.36923077 3.44615385 -3.36923077 3.44615385 -1.5 1.1875 C-1.005 0.795625 -0.51 0.40375 0 0 Z " fill="#03172D" transform="translate(32,19)"/>
<path d="M0 0 C3.37462715 0.54723683 5.08235 1.0549 8 3 C5.39417629 3.93065133 4.35801776 4.14917407 1.75 3.0625 C1.1725 2.711875 0.595 2.36125 0 2 C0 1.34 0 0.68 0 0 Z " fill="#011E37" transform="translate(46,2)"/>
<path d="M0 0 C1.485 0.99 1.485 0.99 3 2 C2.67 3.32 2.34 4.64 2 6 C1.34 5.34 0.68 4.68 0 4 C0 2.68 0 1.36 0 0 Z " fill="#07122B" transform="translate(70,10)"/>
<path d="M0 0 C0.99 0.495 0.99 0.495 2 1 C1.67 1.66 1.34 2.32 1 3 C0.67 2.01 0.34 1.02 0 0 Z " fill="#000002" transform="translate(58,46)"/>
<path d="" fill="#061D3A" transform="translate(0,0)"/>
</svg>
