<?xml version="1.0" encoding="utf-8"?>
<!-- Generator: Adobe Illustrator 28.4.1, SVG Export Plug-In . SVG Version: 6.00 Build 0)  -->
<svg version="1.1" id="Layer_1" xmlns="http://www.w3.org/2000/svg" xmlns:xlink="http://www.w3.org/1999/xlink" x="0px" y="0px"
	 viewBox="0 0 80 80" style="enable-background:new 0 0 80 80;" xml:space="preserve">
<style type="text/css">
	.st0{fill:#000002;}
</style>
<path class="st0" d="M0,0"/>
<g>
	<g>
		<path d="M79.5,34.7c0,1.3,0,2.7,0,4c-2.3,2.1-2.4,5.1-2.8,7.8C75,58.7,67.3,66.4,57.6,72.9c-4.1,2.7-9.5,2-13,5.7
			c-1.7,0-3.3,0-5,0c-1.3-1.4-3.1-1.8-5-2C9.7,74-6,45.4,5.5,23.2c5.4-10.5,13-18.4,25.5-21c9-1.9,16.9-0.8,25.1,2.7
			c5.7,2.4,9.9,5.9,13.8,10.8C74.5,21.5,76.1,28.5,79.5,34.7z M40.1,64.1c12.2,0.4,25.1-12.2,24-26c-1.2-14.4-12.6-24.9-26-23.9
			c-14.1,1.1-24.3,12.6-23.4,26.6C15.4,54.5,26.8,65,40.1,64.1z"/>
		<path d="M36.4,17.6c3.8,0.3,6.4,2.3,6.9,6.1c0.6,4.3,3,6.4,7,7.2c1,0.2,1.9,0.5,2.8,1c1.5,0.7,3.1,1.6,2.9,3.6
			c-0.1,1.8-1.6,2.3-3.1,2.8c-4.2,1.7-4.3,2.7-1.1,6c1.7,1.8,5.8,2.9,4.4,5.8c-1.2,2.5-4.5,4.2-7.8,4.4c-3.3,0.2-5.6,2.7-8,4.4
			c-2.8,2-4.6,1.2-6.5-0.6c-2.9-2.8-4.3-6.3-4.6-10.2c-0.2-3.4-1.3-5.4-5.2-4.7c-1.5,0.3-3.1-0.1-3.7-1.8c-0.7-1.8,0.1-3.5,1.6-4.3
			c5.4-3,7-7.9,7.5-13.7C29.9,19.9,32.5,17.7,36.4,17.6z"/>
	</g>
</g>
</svg>
