<?xml version="1.0" encoding="UTF-8"?>
<svg version="1.1" xmlns="http://www.w3.org/2000/svg" width="80" height="80">
<path d="M0 0 C1.40378906 -0.04253906 1.40378906 -0.04253906 2.8359375 -0.0859375 C6.56891997 0.53099798 8.02078377 1.62802773 10.625 4.375 C11.99316794 6.9744478 12.94364365 9.65594918 13.875 12.4375 C14.13023438 13.15744141 14.38546875 13.87738281 14.6484375 14.61914062 C15.67427506 17.52658022 16.65005531 20.45016592 17.625 23.375 C20.68092152 24.26609458 20.68092152 24.26609458 24.3125 24.8125 C34.1020765 26.7484611 34.1020765 26.7484611 37.625 30.375 C38.1875 33.5 38.1875 33.5 37.625 36.375 C34.46259418 38.48327055 33.11842531 38.71317465 29.4375 39 C28.53644531 39.07476562 27.63539062 39.14953125 26.70703125 39.2265625 C26.01996094 39.27554688 25.33289062 39.32453125 24.625 39.375 C25.11414526 43.94035579 26.75867457 46.07293332 29.875 49.375 C31.08542969 50.67824219 31.08542969 50.67824219 32.3203125 52.0078125 C34.08738074 53.82280123 35.87823434 55.54743349 37.75 57.25 C38.36875 57.95125 38.9875 58.6525 39.625 59.375 C39.4375 61.6875 39.4375 61.6875 38.625 63.375 C35.16 63.87 35.16 63.87 31.625 64.375 C30.965 66.355 30.305 68.335 29.625 70.375 C26.325 70.045 23.025 69.715 19.625 69.375 C18.635 71.355 17.645 73.335 16.625 75.375 C14.315 75.375 12.005 75.375 9.625 75.375 C8.965 77.025 8.305 78.675 7.625 80.375 C5.125 80.875 5.125 80.875 1.625 80.375 C-5.50043151 75.29135881 -10.82461392 67.03132231 -12.375 58.375 C-12.44243348 56.29265408 -12.46014472 54.20831443 -12.4375 52.125 C-12.42847656 51.04734375 -12.41945313 49.9696875 -12.41015625 48.859375 C-12.39855469 48.03953125 -12.38695313 47.2196875 -12.375 46.375 C-13.798125 46.87 -13.798125 46.87 -15.25 47.375 C-19.88830851 48.71516701 -24.58110756 48.76989919 -29.375 48.375 C-30.375 47.375 -30.375 47.375 -30.4375 44.3125 C-29.45799661 37.96531801 -23.39495145 33.90118554 -18.5625 30.25 C-15.01182106 27.20656091 -13.55533863 24.28605114 -13.11328125 19.6015625 C-13.05527344 18.57804687 -12.99726563 17.55453125 -12.9375 16.5 C-12.58893656 10.78071423 -11.4254289 7.21979884 -8.375 2.375 C-5.08324607 0.18049738 -3.8512457 0.05275679 0 0 Z " fill="#000000" transform="translate(34.375,-0.375)"/>
</svg>
