<?xml version="1.0" encoding="utf-8"?>
<!-- Generator: Adobe Illustrator 28.4.1, SVG Export Plug-In . SVG Version: 6.00 Build 0)  -->
<svg version="1.1" id="Layer_1" xmlns="http://www.w3.org/2000/svg" xmlns:xlink="http://www.w3.org/1999/xlink" x="0px" y="0px"
	 viewBox="0 0 80 80" style="enable-background:new 0 0 80 80;" xml:space="preserve">
<g>
	<g>
		<path d="M38.5,80c-9.8-7.2-14.8-17-15-29.1c-0.1-4.4-1.5-5.2-5.3-3.6c-2.6,1-5.3,1.7-8.2,1.4c-4.1-0.4-5.4-2.9-3.5-6.5
			c1.5-2.8,3.9-4.9,6.3-6.8c6.5-5.2,11.2-10.7,10.9-20.2C23.5,5.4,28.9,0.6,36.8,0.6c4.6,0,7.8,2.1,9.9,6.1c0.6,1.2,1.3,2.4,1.6,3.6
			c1.6,9.4,6,15.8,16.5,16c0.6,0,1.3,0.4,1.9,0.6c3.3,1.6,7.3,3.1,6.4,7.6c-0.8,4.4-5.1,3.9-8.5,4.2c-1.7,0.2-3.9-0.5-4.8,1.6
			c-0.9,2.1,0.3,3.9,1.7,5.3c3.5,3.7,7,7.4,10.5,11.1c1.2,1.3,3.2,2.4,2.8,4.4c-0.5,2.2-2.9,1.7-4.6,2c-2.2,0.4-3.8,1.1-4.1,3.5
			c-0.4,3.4-2.6,3.3-5,2.4c-3.8-1.3-6.8-1.2-8,3.5c-0.3,1.4-1.7,2.6-2.9,2.2c-4.9-1.4-5.7,1.9-6.8,5.2C41.8,80,40.2,80,38.5,80z"/>
	</g>
</g>
</svg>
